<svg width="14" height="14" viewBox="0 0 14 14" fill="none" xmlns="http://www.w3.org/2000/svg">
    <path d="M7.15162 0.281243C4.7688 0.274993 2.67193 1.50781 1.47349 3.37031C1.42037 3.45312 1.47974 3.56249 1.57818 3.56249H2.67662C2.75162 3.56249 2.82193 3.52968 2.8688 3.47187C2.97818 3.33906 3.09537 3.21093 3.2188 3.08906C3.72818 2.58124 4.32037 2.18124 4.97974 1.90312C5.66099 1.61562 6.38599 1.46874 7.13443 1.46874C7.88287 1.46874 8.60787 1.61406 9.28912 1.90312C9.94849 2.18124 10.5407 2.58124 11.0501 3.08906C11.5594 3.59687 11.9579 4.18906 12.2376 4.84687C12.5266 5.52812 12.6719 6.25156 12.6719 6.99999C12.6719 7.74843 12.5251 8.47187 12.2376 9.15312C11.9594 9.81093 11.5594 10.4031 11.0501 10.9109C10.5407 11.4187 9.94849 11.8187 9.28912 12.0969C8.60733 12.3848 7.87453 12.5326 7.13443 12.5312C6.38599 12.5312 5.66099 12.3844 4.97974 12.0969C4.32166 11.819 3.72366 11.4163 3.2188 10.9109C3.09537 10.7875 2.97974 10.6594 2.8688 10.5281C2.82193 10.4703 2.75005 10.4375 2.67662 10.4375H1.57818C1.47974 10.4375 1.4188 10.5469 1.47349 10.6297C2.67037 12.4875 4.75787 13.7187 7.13443 13.7187C10.8251 13.7187 13.8219 10.7484 13.8594 7.06874C13.8969 3.32968 10.8954 0.290618 7.15162 0.281243ZM5.17224 8.74999V7.56249H0.265991C0.197241 7.56249 0.140991 7.50624 0.140991 7.43749V6.56249C0.140991 6.49374 0.197241 6.43749 0.265991 6.43749H5.17224V5.24999C5.17224 5.14531 5.29412 5.08593 5.37537 5.15156L7.59255 6.90156C7.60749 6.91325 7.61958 6.92819 7.62789 6.94524C7.6362 6.9623 7.64051 6.98102 7.64051 6.99999C7.64051 7.01897 7.6362 7.03769 7.62789 7.05474C7.61958 7.0718 7.60749 7.08674 7.59255 7.09843L5.37537 8.84843C5.29412 8.91249 5.17224 8.85468 5.17224 8.74999Z" fill="black"/>
</svg>
